<?xml version="1.0" encoding="UTF-8"?>
<!DOCTYPE svg PUBLIC "-//W3C//DTD SVG 1.1//EN" "http://www.w3.org/Graphics/SVG/1.1/DTD/svg11.dtd">
<svg xmlns="http://www.w3.org/2000/svg" version="1.1" width="1500px" height="1500px" style="shape-rendering:geometricPrecision; text-rendering:geometricPrecision; image-rendering:optimizeQuality; fill-rule:evenodd; clip-rule:evenodd" xmlns:xlink="http://www.w3.org/1999/xlink">
<g><path style="opacity:0.938" fill="#167eef" d="M 702.5,579.5 C 704.558,581.927 706.391,584.593 708,587.5C 730.5,629.833 753,672.167 775.5,714.5C 770.615,715.802 765.782,715.802 761,714.5C 742.175,678.182 722.842,642.182 703,606.5C 683.579,642.341 664.412,678.341 645.5,714.5C 640.88,715.493 636.214,715.827 631.5,715.5C 655.146,670.209 678.813,624.876 702.5,579.5 Z"/></g>
<g><path style="opacity:0.941" fill="#167eef" d="M 791.5,579.5 C 816.867,624.232 841.201,669.565 864.5,715.5C 859.786,715.827 855.12,715.493 850.5,714.5C 831.254,678.34 811.754,642.34 792,606.5C 780.071,628.696 767.905,650.696 755.5,672.5C 752.662,668.828 750.329,664.828 748.5,660.5C 763.113,633.605 777.447,606.605 791.5,579.5 Z"/></g>
<g><path style="opacity:0.817" fill="#157eee" d="M 691.5,658.5 C 694.5,658.5 697.5,658.5 700.5,658.5C 700.5,661.833 700.5,665.167 700.5,668.5C 697.5,668.5 694.5,668.5 691.5,668.5C 691.5,665.167 691.5,661.833 691.5,658.5 Z"/></g>
<g><path style="opacity:0.756" fill="#157eee" d="M 703.5,658.5 C 706.833,658.5 710.167,658.5 713.5,658.5C 713.5,661.833 713.5,665.167 713.5,668.5C 710.167,668.5 706.833,668.5 703.5,668.5C 703.5,665.167 703.5,661.833 703.5,658.5 Z"/></g>
<g><path style="opacity:0.811" fill="#157eee" d="M 780.5,658.5 C 783.833,658.5 787.167,658.5 790.5,658.5C 790.5,661.833 790.5,665.167 790.5,668.5C 787.167,668.5 783.833,668.5 780.5,668.5C 780.5,665.167 780.5,661.833 780.5,658.5 Z"/></g>
<g><path style="opacity:0.817" fill="#157fef" d="M 793.5,658.5 C 796.5,658.5 799.5,658.5 802.5,658.5C 802.5,661.833 802.5,665.167 802.5,668.5C 799.5,668.5 796.5,668.5 793.5,668.5C 793.5,665.167 793.5,661.833 793.5,658.5 Z"/></g>
<g><path style="opacity:0.88" fill="#167eef" d="M 691.5,671.5 C 694.5,671.5 697.5,671.5 700.5,671.5C 700.5,674.833 700.5,678.167 700.5,681.5C 697.5,681.5 694.5,681.5 691.5,681.5C 691.5,678.167 691.5,674.833 691.5,671.5 Z"/></g>
<g><path style="opacity:0.809" fill="#167eef" d="M 703.5,671.5 C 706.833,671.5 710.167,671.5 713.5,671.5C 713.5,674.833 713.5,678.167 713.5,681.5C 710.167,681.5 706.833,681.5 703.5,681.5C 703.5,678.167 703.5,674.833 703.5,671.5 Z"/></g>
<g><path style="opacity:0.883" fill="#167eef" d="M 780.5,671.5 C 783.833,671.5 787.167,671.5 790.5,671.5C 790.5,674.833 790.5,678.167 790.5,681.5C 787.167,681.5 783.833,681.5 780.5,681.5C 780.5,678.167 780.5,674.833 780.5,671.5 Z"/></g>
<g><path style="opacity:0.89" fill="#167eef" d="M 793.5,671.5 C 796.5,671.5 799.5,671.5 802.5,671.5C 802.5,674.833 802.5,678.167 802.5,681.5C 799.5,681.5 796.5,681.5 793.5,681.5C 793.5,678.167 793.5,674.833 793.5,671.5 Z"/></g>
<g><path style="opacity:0.956" fill="#167eef" d="M 689.5,840.5 C 693.936,840.21 698.27,840.71 702.5,842C 703.126,842.75 703.626,843.584 704,844.5C 704.333,861.5 704.667,878.5 705,895.5C 710.282,907.528 718.448,910.028 729.5,903C 731.102,901.065 732.269,898.899 733,896.5C 733.5,878.17 733.667,859.836 733.5,841.5C 738.14,840.603 742.806,840.436 747.5,841C 748.931,841.465 750.097,842.299 751,843.5C 751.667,861.5 751.667,879.5 751,897.5C 745.385,911.986 734.718,918.653 719,917.5C 702.225,918.686 691.559,911.352 687,895.5C 686.5,877.503 686.333,859.503 686.5,841.5C 687.791,841.737 688.791,841.404 689.5,840.5 Z"/></g>
<g><path style="opacity:0.957" fill="#167eef" d="M 768.5,840.5 C 773.039,839.957 776.873,841.29 780,844.5C 785.803,862.241 791.803,879.908 798,897.5C 804.895,879.932 810.561,861.932 815,843.5C 820.616,839.515 826.283,839.515 832,843.5C 832.023,852.118 830.356,860.451 827,868.5C 823.333,878.5 819.667,888.5 816,898.5C 813.82,904.361 810.987,909.861 807.5,915C 801.947,916.57 796.281,916.903 790.5,916C 789.069,915.535 787.903,914.701 787,913.5C 777.312,891.103 768.812,868.269 761.5,845C 763.324,842.495 765.657,840.995 768.5,840.5 Z"/></g>
<g><path style="opacity:0.957" fill="#167eef" d="M 850.5,840.5 C 857.663,839.608 863.497,841.941 868,847.5C 876,861.5 884,875.5 892,889.5C 892.5,873.503 892.667,857.503 892.5,841.5C 896.49,840.81 900.49,840.643 904.5,841C 906.931,841.295 908.764,842.462 910,844.5C 910.833,867.84 910.666,891.174 909.5,914.5C 900.63,919.025 892.796,917.692 886,910.5C 877.413,895.661 869.08,880.661 861,865.5C 861.622,882.113 861.622,898.779 861,915.5C 856.252,916.635 851.419,916.802 846.5,916C 845.667,915.167 844.833,914.333 844,913.5C 843.333,890.167 843.333,866.833 844,843.5C 846.166,842.269 848.333,841.269 850.5,840.5 Z"/></g>
<g><path style="opacity:0.958" fill="#167eef" d="M 596.5,841.5 C 600.846,841.334 605.179,841.501 609.5,842C 611.848,842.346 613.681,843.513 615,845.5C 620,857.167 625,868.833 630,880.5C 634.723,868.053 639.723,855.72 645,843.5C 651.428,841.077 657.928,840.911 664.5,843C 666.678,847.891 667.845,853.057 668,858.5C 670.121,877.52 671.288,896.52 671.5,915.5C 665.767,918.487 660.267,918.154 655,914.5C 653.996,898.693 652.662,883.026 651,867.5C 647.195,877.248 643.195,886.914 639,896.5C 633,900.5 627,900.5 621,896.5C 616.391,886.282 612.057,875.948 608,865.5C 606.926,882.162 605.926,898.829 605,915.5C 599.852,918.093 594.686,918.093 589.5,915.5C 588.031,913.808 587.365,911.808 587.5,909.5C 588.978,888.167 590.478,866.834 592,845.5C 593.25,843.807 594.75,842.473 596.5,841.5 Z"/></g>
</svg>
